<svg xmlns="http://www.w3.org/2000/svg" version="1.0" viewBox="0 0 512 512"><defs/><path d="M224 2A254 254 0 0011 181 292 292 0 001 284a257 257 0 00500 47c8-25 11-47 11-75A257 257 0 00224 2zm-59 167c0 4 0 4-4 4-6 1-16 6-19 10-4 4-3 8 9 35a10314 10314 0 0162 140l15-28 22-41 6-13-17-38c-25-55-24-54-28-58-4-3-12-6-21-7h-7v-7h80v3c0 4 0 4-3 4-7 0-15 5-15 10 0 2 27 63 29 65 0 1 3-3 14-28 15-30 17-35 15-39-1-4-7-7-16-8h-7v-7h70v3c0 4 0 4-5 4l-12 4c-13 6-14 8-33 48l-17 36 13 32 27 58a2313 2313 0 0069-164c-2-5-9-10-16-12l-8-2c-2 0-2-1-2-4v-3h72v3c0 4 0 4-4 4-11 2-20 9-26 20l-46 107-44 101h-4l-3-1-23-54-24-54c-1-1-11 17-39 72l-19 36h-7l-13-28c-79-182-74-171-88-185-7-6-19-14-23-14l-1-4v-3h91v3z"/></svg>